# xmcd CD database file
#
# Track frame offsets:
#	150
#	19659
#	34717
#	54787
#	73312
#	97028
#	115062
#	128560
#	148228
#	167894
#
# Disc length: 2480 seconds
#
# Revision: 0
# Processed by: cddbd v1.5PL3 Copyright (c) Steve Scherf et al.
# Submitted via: CDex 1.50Beta7
#
DISCID=8809ae0a
DTITLE=Marianne Baker - How did we get to here?
DYEAR=2004
DGENRE=Jazz
TTITLE0=Livin' Easy
TTITLE1=Charming
TTITLE2=How Did We Get to Here?
TTITLE3=What Do You Think About... ?
TTITLE4=Big Bad Man
TTITLE5=Milk Carton Girl
TTITLE6=Don't Let Me Be Misunderstood
TTITLE7=Married Man
TTITLE8=Peel All the Layers
TTITLE9=Delusion
EXTD=YEAR: 2004
EXTT0=
EXTT1=
EXTT2=
EXTT3=
EXTT4=
EXTT5=
EXTT6=
EXTT7=
EXTT8=
EXTT9=
PLAYORDER=
